<?xml version="1.0" encoding="UTF-8"?>
<svg id="a" data-name="Layer 1" xmlns="http://www.w3.org/2000/svg" viewBox="0 0 1080 1080">
  <defs>
    <style>
      .b {
        fill: #081d39;
        stroke-width: 0px;
      }
    </style>
  </defs>
  <path class="b" d="M471.2,459.5l48.75-6.8c5.18-.72,9.49,3.94,8.36,9.05l-30.31,137.4c-.49,2.21-1.98,4.06-4.03,5l-50.04,23.02c-5.51,2.54-11.57-2.27-10.36-8.22l31.4-153.6c.63-3.08,3.13-5.42,6.24-5.85Z"/>
  <path class="b" d="M580.56,511.14l-33.96,19.78c-2.05,1.2-3.23,3.47-3.01,5.84l5.55,59.84c.27,2.96,2.1,5.56,4.79,6.83l47.1,22.18c5.17,2.43,10.92-2,9.88-7.62l-9.64-51.99,44.4-70.99c1.65-2.63,1.06-6.08-1.36-8.02l-43.39-34.86-53.54.99c-5.21,0-8.15,5.99-4.95,10.11l39,42.1c1.64,1.77,1.21,4.59-.87,5.8Z"/>
</svg>